<svg xmlns="http://www.w3.org/2000/svg" viewBox="0 0 35 35"><g><g><g><path fill="none" stroke="#14214e" stroke-linecap="round" stroke-linejoin="round" stroke-miterlimit="20" stroke-width="2" d="M5.276 6.7v0h25.14c1.753 0 3.107 1.583 2.808 3.321l-2.081 9.763a1.42 1.42 0 0 1-1.397 1.169H8.838v0"/></g><g><path fill="none" stroke="#14214e" stroke-linecap="round" stroke-linejoin="round" stroke-miterlimit="20" stroke-width="2" d="M9.551 30.929a2.85 2.85 0 1 1 5.7 0 2.85 2.85 0 0 1-5.7 0z"/></g><g><path fill="none" stroke="#14214e" stroke-linecap="round" stroke-linejoin="round" stroke-miterlimit="20" stroke-width="2" d="M25.228 30.929a2.85 2.85 0 1 1 5.701 0 2.85 2.85 0 0 1-5.7 0z"/></g><g><path fill="none" stroke="#14214e" stroke-linecap="round" stroke-linejoin="round" stroke-miterlimit="20" stroke-width="2" d="M1 1c2.85 0 2.85 1.425 4.276 5.7L9.55 23.804c.141.657.48 1.425 1.152 1.425h20.226v0"/></g></g></g></svg>
